<svg version="1.1" id="Layer_1" xmlns="http://www.w3.org/2000/svg" xmlns:xlink="http://www.w3.org/1999/xlink" x="0px" y="0px"
	 width="100%" viewBox="0 0 103 112" enable-background="new 0 0 103 112" xml:space="preserve">
<path fill="#FCFDFD" opacity="1.000000" stroke="none" 
	d="
M67.000000,113.000000 
	C57.645771,113.000000 48.291542,113.000000 38.764900,112.664406 
	C34.627911,110.536613 30.663334,108.744415 26.871105,106.655281 
	C39.267109,91.346779 51.490765,76.335220 63.839699,61.169800 
	C54.623501,49.815422 45.295582,39.219410 37.040451,27.844820 
	C31.332958,19.980576 25.177769,14.864882 15.102949,16.599808 
	C21.245127,9.790174 27.937883,4.400266 37.047558,2.883501 
	C37.458187,2.815130 37.686676,1.652795 38.000000,1.000000 
	C47.354229,1.000000 56.708454,1.000000 66.235085,1.335764 
	C66.614548,1.929273 66.774269,2.343368 67.035431,2.422456 
	C85.002853,7.863481 97.057083,19.206209 102.238960,37.495667 
	C102.326668,37.805241 103.391258,37.838043 104.000000,38.000000 
	C104.000000,50.354229 104.000000,62.708454 103.664238,75.235085 
	C103.070732,75.614548 102.656624,75.774254 102.577538,76.035416 
	C97.136597,94.002922 85.793335,106.056625 67.504318,111.238953 
	C67.194733,111.326675 67.161949,112.391258 67.000000,113.000000 
M83.272491,85.236839 
	C77.823616,78.595917 72.374741,71.954987 66.664589,64.995621 
	C63.853333,68.243820 61.305019,71.188194 58.512787,74.414406 
	C63.426048,80.453056 68.181519,86.346420 73.015465,92.174690 
	C73.591194,92.868851 74.582008,93.617790 75.402412,93.643661 
	C79.921326,93.786140 84.447067,93.711746 90.051888,93.711746 
	C87.382217,90.395020 85.539810,88.106064 83.272491,85.236839 
M76.988068,45.507221 
	C81.086479,40.586555 85.184891,35.665886 89.701790,30.242767 
	C88.303795,30.033701 87.703613,29.823507 87.127060,29.875477 
	C75.128113,30.957064 66.516640,37.584454 59.645222,46.906399 
	C59.194775,47.517487 59.434410,49.183876 59.972893,49.879745 
	C61.973148,52.464622 64.232765,54.848808 66.705383,57.661442 
	C70.175446,53.618095 73.396027,49.865452 76.988068,45.507221 
M61.564026,22.024830 
	C56.768764,18.599482 52.277153,18.621408 49.166187,22.085350 
	C46.124744,25.471888 46.118271,30.503817 49.151043,33.850597 
	C51.872540,36.853870 57.141174,37.347031 60.494869,34.912418 
	C64.480812,32.018822 65.010094,27.704016 61.564026,22.024830 
z"/>
<path fill="#FEFEFE" opacity="1.000000" stroke="none" 
	d="
M1.000000,76.000000 
	C1.000000,63.645771 1.000000,51.291546 1.335593,38.765480 
	C2.112788,37.785496 2.744324,37.026005 2.965805,36.161465 
	C4.666629,29.522373 7.658211,23.651613 12.991728,19.355368 
	C24.471565,33.674313 35.813484,47.679359 47.402615,61.989658 
	C37.118038,74.530312 27.042908,86.815575 16.649687,98.981987 
	C9.720654,92.677818 4.253895,85.808189 2.759265,76.498192 
	C2.718540,76.244522 1.610390,76.162216 1.000000,76.000000 
z"/>
<path fill="#000000" opacity="1.000000" stroke="none" 
	d="
M12.853809,19.041471 
	C7.658211,23.651613 4.666629,29.522373 2.965805,36.161465 
	C2.744324,37.026005 2.112788,37.785496 1.335593,38.296822 
	C1.000000,25.740049 1.000000,13.480098 1.000000,1.000000 
	C13.020000,1.000000 25.041342,1.000000 37.531342,1.000000 
	C37.686676,1.652795 37.458187,2.815130 37.047558,2.883501 
	C27.937883,4.400266 21.245127,9.790174 14.805897,16.698038 
	C13.880985,17.753616 13.367397,18.397545 12.853809,19.041471 
z"/>
<path fill="#000000" opacity="1.000000" stroke="none" 
	d="
M104.000000,37.531342 
	C103.391258,37.838043 102.326668,37.805241 102.238960,37.495667 
	C97.057083,19.206209 85.002853,7.863481 67.035431,2.422456 
	C66.774269,2.343368 66.614548,1.929273 66.703743,1.335764 
	C79.259949,1.000000 91.519905,1.000000 104.000000,1.000000 
	C104.000000,13.020000 104.000000,25.041342 104.000000,37.531342 
z"/>
<path fill="#000000" opacity="1.000000" stroke="none" 
	d="
M1.000000,76.468658 
	C1.610390,76.162216 2.718540,76.244522 2.759265,76.498192 
	C4.253895,85.808189 9.720654,92.677818 16.780426,99.289246 
	C20.385756,102.127647 23.542253,104.539932 26.698753,106.952217 
	C30.663334,108.744415 34.627911,110.536613 38.296246,112.664406 
	C25.740049,113.000000 13.480100,113.000000 1.000000,113.000000 
	C1.000000,100.980003 1.000000,88.958656 1.000000,76.468658 
z"/>
<path fill="#000000" opacity="1.000000" stroke="none" 
	d="
M67.468658,113.000000 
	C67.161949,112.391258 67.194733,111.326675 67.504318,111.238953 
	C85.793335,106.056625 97.136597,94.002922 102.577538,76.035416 
	C102.656624,75.774254 103.070732,75.614548 103.664238,75.703743 
	C104.000000,88.259949 104.000000,100.519905 104.000000,113.000000 
	C91.980003,113.000000 79.958656,113.000000 67.468658,113.000000 
z"/>
<path fill="#4BC455" opacity="1.000000" stroke="none" 
	d="
M26.871105,106.655281 
	C23.542253,104.539932 20.385756,102.127647 17.098518,99.408096 
	C27.042908,86.815575 37.118038,74.530312 47.402615,61.989658 
	C35.813484,47.679359 24.471565,33.674313 12.991728,19.355368 
	C13.367397,18.397545 13.880985,17.753616 14.691627,17.011456 
	C25.177769,14.864882 31.332958,19.980576 37.040451,27.844820 
	C45.295582,39.219410 54.623501,49.815422 63.839699,61.169800 
	C51.490765,76.335220 39.267109,91.346779 26.871105,106.655281 
z"/>
<path fill="#241D69" opacity="1.000000" stroke="none" 
	d="
M83.484947,85.526978 
	C85.539810,88.106064 87.382217,90.395020 90.051888,93.711746 
	C84.447067,93.711746 79.921326,93.786140 75.402412,93.643661 
	C74.582008,93.617790 73.591194,92.868851 73.015465,92.174690 
	C68.181519,86.346420 63.426048,80.453056 58.512787,74.414406 
	C61.305019,71.188194 63.853333,68.243820 66.664589,64.995621 
	C72.374741,71.954987 77.823616,78.595917 83.484947,85.526978 
z"/>
<path fill="#221B68" opacity="1.000000" stroke="none" 
	d="
M76.802338,45.810017 
	C73.396027,49.865452 70.175446,53.618095 66.705383,57.661442 
	C64.232765,54.848808 61.973148,52.464622 59.972893,49.879745 
	C59.434410,49.183876 59.194775,47.517487 59.645222,46.906399 
	C66.516640,37.584454 75.128113,30.957064 87.127060,29.875477 
	C87.703613,29.823507 88.303795,30.033701 89.701790,30.242767 
	C85.184891,35.665886 81.086479,40.586555 76.802338,45.810017 
z"/>
<path fill="#231C68" opacity="1.000000" stroke="none" 
	d="
M61.781349,22.338932 
	C65.010094,27.704016 64.480812,32.018822 60.494869,34.912418 
	C57.141174,37.347031 51.872540,36.853870 49.151043,33.850597 
	C46.118271,30.503817 46.124744,25.471888 49.166187,22.085350 
	C52.277153,18.621408 56.768764,18.599482 61.781349,22.338932 
z"/>
</svg>