<svg version="1.1" id="Layer_1" xmlns="http://www.w3.org/2000/svg" xmlns:xlink="http://www.w3.org/1999/xlink" x="0px" y="0px"
	 width="100%" viewBox="0 0 1203 781" enable-background="new 0 0 1203 781" xml:space="preserve">
<path fill="#FFFFFF" opacity="1.000000" stroke="none" 
	d="
M860.000000,782.000000 
	C573.369385,782.000000 287.238708,782.000000 1.054036,782.000000 
	C1.054036,521.735474 1.054036,261.470917 1.054036,1.103194 
	C401.880707,1.103194 802.761475,1.103194 1203.821045,1.103194 
	C1203.821045,261.333221 1203.821045,521.666626 1203.821045,782.000000 
	C1089.470825,782.000000 974.985413,782.000000 860.000000,782.000000 
M422.809601,293.275879 
	C423.184082,304.042816 422.335968,315.023224 424.171448,325.535065 
	C428.915741,352.705505 444.160370,372.534821 470.024384,382.741974 
	C508.484924,397.920349 553.015015,385.647491 579.035645,353.151428 
	C598.891907,328.353851 606.557983,299.755920 604.223511,268.258423 
	C602.836426,249.542267 596.452698,232.883255 583.520813,219.156372 
	C559.569092,193.732208 515.674927,186.965622 482.235016,203.550797 
	C445.515381,221.762619 427.980072,252.956848 422.809601,293.275879 
M712.863953,505.231171 
	C706.191895,546.897888 699.519836,588.564575 692.828918,630.349304 
	C694.001221,630.627441 694.631287,630.912964 695.258240,630.906311 
	C723.565430,630.607971 751.906799,631.024292 780.167603,629.710632 
	C800.019226,628.787842 818.216858,621.265015 833.662781,608.565796 
	C864.656677,583.083679 874.604675,549.390198 868.462036,510.956696 
	C861.894775,469.866974 830.388916,443.266327 790.070129,442.942566 
	C769.076111,442.773956 748.079224,442.975891 727.085144,442.810944 
	C723.677551,442.784180 722.433167,443.997406 721.945007,447.183350 
	C719.023254,466.253113 715.969666,485.302673 712.863953,505.231171 
M376.604523,589.036926 
	C374.456879,602.752686 372.309235,616.468506 370.119385,630.453674 
	C383.723846,630.453674 396.635498,630.453674 409.789612,630.453674 
	C410.177734,628.224243 410.544098,626.275146 410.853699,624.317139 
	C413.764313,605.911316 416.771729,587.519653 419.480865,569.084167 
	C420.035278,565.311401 421.473206,564.057739 425.204041,564.196655 
	C432.524628,564.468933 439.863434,564.484375 447.188049,564.316833 
	C450.756958,564.235229 452.381836,565.463379 453.420654,569.016418 
	C459.068695,588.333801 465.139893,607.527710 470.748657,626.856079 
	C471.726837,630.226990 473.299194,630.922058 476.347626,630.889771 
	C487.342102,630.773193 498.338470,630.844238 509.334045,630.813599 
	C510.408997,630.810608 511.483368,630.595398 512.877319,630.444031 
	C511.789429,626.690063 510.871368,623.341736 509.849518,620.025391 
	C503.629059,599.836426 497.416840,579.644836 491.110962,559.482544 
	C490.260590,556.763550 490.876099,555.341736 493.439056,553.934265 
	C497.800201,551.539246 502.122070,548.933044 506.019775,545.857178 
	C526.474365,529.715271 534.536926,508.680939 529.542603,483.085480 
	C525.229919,460.983215 504.255524,444.102753 479.392242,443.139496 
	C457.437805,442.288910 435.444550,442.434265 413.468170,442.161530 
	C409.161987,442.108093 404.854553,442.153839 400.000549,442.153839 
	C392.229340,491.043243 384.509186,539.611572 376.604523,589.036926 
M405.049988,234.525482 
	C404.183746,232.192627 403.527618,229.754364 402.418427,227.543365 
	C392.490143,207.752441 375.243988,199.180893 354.253326,198.227798 
	C332.639587,197.246414 310.955505,197.795639 289.302032,197.715439 
	C276.546417,197.668198 276.587250,197.709885 274.602936,210.284668 
	C270.719208,234.895523 266.814941,259.503235 262.863098,284.103241 
	C258.989746,308.214752 255.006668,332.308655 251.154037,356.423431 
	C249.616776,366.045654 248.300125,375.703156 246.845825,385.597748 
	C260.293518,385.597748 273.217102,385.597748 286.478394,385.597748 
	C290.000885,363.524017 293.497070,341.615234 297.022003,319.526428 
	C307.762604,319.526428 318.190430,319.526428 328.698700,319.526428 
	C334.511810,338.959839 340.282166,358.196991 346.016449,377.444916 
	C348.516174,385.835632 348.482635,385.845612 357.286163,385.845551 
	C359.951660,385.845520 362.617126,385.845520 365.282623,385.845520 
	C373.184052,385.845520 381.085510,385.845520 389.718231,385.845520 
	C381.890106,360.340302 374.313080,335.653168 366.787323,311.132996 
	C371.333221,308.346954 375.535217,305.991730 379.509186,303.299896 
	C402.607941,287.653625 412.937744,260.268280 405.049988,234.525482 
M194.845642,489.366486 
	C181.421005,513.126343 176.911942,538.761108 180.304581,565.558594 
	C183.614975,591.706482 196.056503,612.351746 220.186829,624.720825 
	C235.819809,632.734131 252.647598,634.103088 269.833008,633.092163 
	C294.598114,631.635437 315.618256,622.223694 332.088806,603.420654 
	C341.989288,592.118042 348.533844,578.981750 353.240570,564.019653 
	C338.808777,564.019653 325.027313,563.960571 311.248932,564.140137 
	C310.228729,564.153442 308.801056,565.690308 308.286346,566.842163 
	C298.723572,588.243591 281.246490,595.469543 259.153564,594.331116 
	C242.950516,593.496216 230.394363,583.941406 225.188110,568.532776 
	C219.622574,552.060913 221.420959,535.603577 226.155930,519.382080 
	C234.428146,491.042572 257.307892,475.646393 285.728424,478.865112 
	C301.601501,480.662781 311.643616,489.024963 315.907013,504.418427 
	C316.743622,507.439087 318.063110,508.363922 321.070374,508.299591 
	C329.232300,508.124878 337.400635,508.247864 345.566406,508.251190 
	C349.990082,508.253021 354.413788,508.251556 358.770142,508.251556 
	C359.554413,495.510864 354.813446,479.640869 347.223724,468.930389 
	C332.700806,448.435974 311.743958,440.134399 287.745392,439.390198 
	C247.732529,438.149353 216.442001,454.271088 194.845642,489.366486 
M562.119629,502.639221 
	C555.400940,545.152771 548.682190,587.666321 541.850708,630.893311 
	C544.267883,630.893311 546.054565,630.893372 547.841248,630.893250 
	C561.673828,630.892029 575.506348,630.890076 589.338928,630.889771 
	C611.004395,630.889343 632.670044,630.934265 654.334717,630.800964 
	C655.952576,630.791077 658.805908,629.742798 658.986511,628.782471 
	C661.129761,617.389221 662.873718,605.920898 664.893677,593.412476 
	C638.839417,593.412476 613.502502,593.412476 587.561096,593.412476 
	C589.467224,581.719482 591.237610,571.077515 592.926025,560.422668 
	C594.033508,553.434265 593.979797,553.548340 600.818298,553.584656 
	C619.982971,553.686523 639.148438,553.724731 658.312683,553.616455 
	C659.738953,553.608398 662.232605,552.438110 662.414795,551.467407 
	C664.431213,540.725891 666.088501,529.916870 667.979553,518.286255 
	C644.988464,518.286255 622.612061,518.286255 599.662781,518.286255 
	C601.516357,506.464661 603.389893,495.497070 604.876099,484.477203 
	C605.362305,480.872314 606.771606,479.852295 610.303223,479.877991 
	C632.633911,480.040833 654.966064,479.990234 677.297791,480.009674 
	C679.098022,480.011261 680.898315,480.009918 682.956543,480.009918 
	C684.924011,467.482483 686.819275,455.414734 688.758057,443.069580 
	C687.121643,442.924896 686.152710,442.767853 685.183167,442.763763 
	C648.858948,442.609680 612.534180,442.527954 576.211060,442.241272 
	C572.413574,442.211273 571.451477,443.776215 570.949341,447.066559 
	C568.163391,465.322052 565.207947,483.551697 562.119629,502.639221 
M127.943359,359.603210 
	C129.902145,347.474976 131.860916,335.346771 133.878387,322.855103 
	C145.434998,322.855103 156.740265,322.867004 168.045502,322.851959 
	C180.854599,322.834900 193.190689,320.616119 204.707657,314.765076 
	C232.150223,300.823334 243.377945,273.128448 240.548187,245.758087 
	C237.769150,218.878143 220.784256,201.562393 194.608093,198.444122 
	C182.927536,197.052658 171.008530,197.533676 159.195267,197.418030 
	C144.225906,197.271454 129.254028,197.382584 113.973312,197.382584 
	C104.011330,260.036438 94.060081,322.622803 84.055992,385.541504 
	C97.581123,385.541504 110.516312,385.541504 123.837776,385.541504 
	C125.169891,377.137512 126.490807,368.804199 127.943359,359.603210 
M584.858582,168.661407 
	C616.900513,208.267685 648.898499,247.909714 681.065063,287.414520 
	C683.727905,290.684906 684.211243,292.675293 681.345581,296.175049 
	C650.441833,333.916595 619.714233,371.802399 588.956055,409.663025 
	C583.872192,415.920746 578.873108,422.247345 573.269348,429.248566 
	C575.882080,429.384430 577.491455,429.538391 579.101074,429.540771 
	C592.095032,429.559967 605.090454,429.443176 618.081970,429.621338 
	C621.584961,429.669373 623.827026,428.562836 626.051697,425.792999 
	C648.990112,397.233887 672.083313,368.799103 695.133911,340.330139 
	C708.742615,323.522583 722.352173,306.715759 736.046936,289.802979 
	C735.281372,288.672882 734.709961,287.676178 733.995117,286.796021 
	C698.728455,243.375015 663.472839,199.944870 628.070862,156.634415 
	C626.872009,155.167755 624.195312,154.237717 622.190613,154.208389 
	C607.533752,153.994019 592.872620,154.068420 578.212830,154.071457 
	C576.953308,154.071716 575.693787,154.214996 573.370850,154.356720 
	C577.434387,159.417313 580.922607,163.761429 584.858582,168.661407 
M1092.500000,443.046753 
	C1057.335327,443.034943 1022.170593,443.023712 987.005920,443.010925 
	C978.751709,443.007904 978.706787,442.998138 977.394775,451.006927 
	C975.842102,460.485504 974.376892,469.978394 972.748962,480.253326 
	C990.363342,480.253326 1007.407043,480.253326 1025.040894,480.253326 
	C1017.005371,530.876953 1009.096069,580.704956 1001.132996,630.872009 
	C1014.799988,630.872009 1027.717041,630.872009 1040.895264,630.872009 
	C1043.266846,616.168091 1045.618530,601.737000 1047.918335,587.297607 
	C1053.334351,553.293335 1058.779419,519.293457 1064.051758,485.266876 
	C1064.640259,481.468781 1065.829468,479.971344 1069.957764,480.078552 
	C1081.782471,480.385834 1093.620361,480.187958 1105.453003,480.188599 
	C1109.229492,480.188782 1113.005981,480.188629 1116.995605,480.188629 
	C1118.999756,467.623077 1120.904297,455.681366 1122.919434,443.046783 
	C1112.732422,443.046783 1103.116211,443.046783 1092.500000,443.046753 
M942.410950,515.019470 
	C946.216064,491.252167 950.021179,467.484833 953.889465,443.323059 
	C940.329773,443.323059 927.289001,443.323059 913.994812,443.323059 
	C904.051453,505.913757 894.153992,568.215515 884.211243,630.802368 
	C897.754822,630.802368 910.684937,630.802368 924.039673,630.802368 
	C925.859192,619.292480 927.647949,607.989075 929.432556,596.684998 
	C933.685425,569.746826 937.936218,542.808350 942.410950,515.019470 
M749.868164,307.646759 
	C748.064636,305.532501 746.261108,303.418274 744.157593,300.952362 
	C735.604553,310.859283 727.260559,320.524017 718.823242,330.296936 
	C734.483948,349.411804 749.841187,368.238129 765.367249,386.924225 
	C766.410522,388.179810 768.722046,388.952881 770.455322,388.973389 
	C784.279724,389.137024 798.106934,389.075165 811.933228,389.043182 
	C812.958435,389.040802 813.982910,388.732880 815.510193,388.485687 
	C793.501038,361.396210 771.895752,334.803711 749.868164,307.646759 
M722.232788,245.708145 
	C721.196228,246.985718 720.159729,248.263306 718.953918,249.749542 
	C727.316772,259.723389 735.620361,269.626617 744.261719,279.932556 
	C768.241516,251.105057 791.867737,222.702682 816.035645,193.649063 
	C814.120850,193.530258 813.179077,193.378601 812.247925,193.427734 
	C791.179138,194.539429 771.924438,200.868881 754.520935,212.970871 
	C741.882263,221.759521 732.683289,233.827347 722.232788,245.708145 
M689.928040,170.442322 
	C689.117188,171.498169 688.234802,172.507095 687.506653,173.617142 
	C681.267822,183.128464 681.774902,195.530914 688.735474,204.435501 
	C695.636047,213.263184 707.450378,216.930695 717.804321,213.459305 
	C729.091125,209.675156 736.150146,200.028381 736.096680,188.257278 
	C736.043335,176.521088 730.499146,168.071014 719.742065,163.744598 
	C708.864563,159.369781 698.873352,161.608429 689.928040,170.442322 
z"/>
<path fill="#1D1664" opacity="1.000000" stroke="none" 
	d="
M422.840332,292.826294 
	C427.980072,252.956848 445.515381,221.762619 482.235016,203.550797 
	C515.674927,186.965622 559.569092,193.732208 583.520813,219.156372 
	C596.452698,232.883255 602.836426,249.542267 604.223511,268.258423 
	C606.557983,299.755920 598.891907,328.353851 579.035645,353.151428 
	C553.015015,385.647491 508.484924,397.920349 470.024384,382.741974 
	C444.160370,372.534821 428.915741,352.705505 424.171448,325.535065 
	C422.335968,315.023224 423.184082,304.042816 422.840332,292.826294 
M552.671753,321.090942 
	C560.545654,306.431793 563.249146,290.634125 561.843445,274.280060 
	C560.535828,259.066803 555.111084,245.768143 540.520691,238.221954 
	C522.323364,228.810318 498.863617,232.895279 484.310089,248.756149 
	C466.160675,268.535919 461.250732,292.463928 466.668701,317.997131 
	C471.453796,340.547974 489.218781,351.946228 512.253784,349.612823 
	C530.764160,347.737793 543.268005,337.236023 552.671753,321.090942 
z"/>
<path fill="#4AC454" opacity="1.000000" stroke="none" 
	d="
M712.912109,504.795105 
	C715.969666,485.302673 719.023254,466.253113 721.945007,447.183350 
	C722.433167,443.997406 723.677551,442.784180 727.085144,442.810944 
	C748.079224,442.975891 769.076111,442.773956 790.070129,442.942566 
	C830.388916,443.266327 861.894775,469.866974 868.462036,510.956696 
	C874.604675,549.390198 864.656677,583.083679 833.662781,608.565796 
	C818.216858,621.265015 800.019226,628.787842 780.167603,629.710632 
	C751.906799,631.024292 723.565430,630.607971 695.258240,630.906311 
	C694.631287,630.912964 694.001221,630.627441 692.828918,630.349304 
	C699.519836,588.564575 706.191895,546.897888 712.912109,504.795105 
M743.349854,562.856506 
	C741.791199,572.970703 740.232483,583.084961 738.607666,593.628357 
	C750.168213,593.628357 760.981628,594.168335 771.720276,593.502014 
	C787.904358,592.497925 802.272949,586.803101 812.828064,573.862610 
	C826.456665,557.154297 829.963867,537.597656 826.560669,516.973572 
	C823.137573,496.228699 809.622986,483.338135 788.955811,480.672516 
	C779.122253,479.404205 769.019531,480.104645 759.043213,480.241302 
	C758.031311,480.255188 756.377625,482.425842 756.154785,483.781799 
	C751.871460,509.845337 747.757629,535.936768 743.349854,562.856506 
z"/>
<path fill="#4AC454" opacity="1.000000" stroke="none" 
	d="
M376.696777,588.608398 
	C384.509186,539.611572 392.229340,491.043243 400.000549,442.153839 
	C404.854553,442.153839 409.161987,442.108093 413.468170,442.161530 
	C435.444550,442.434265 457.437805,442.288910 479.392242,443.139496 
	C504.255524,444.102753 525.229919,460.983215 529.542603,483.085480 
	C534.536926,508.680939 526.474365,529.715271 506.019775,545.857178 
	C502.122070,548.933044 497.800201,551.539246 493.439056,553.934265 
	C490.876099,555.341736 490.260590,556.763550 491.110962,559.482544 
	C497.416840,579.644836 503.629059,599.836426 509.849518,620.025391 
	C510.871368,623.341736 511.789429,626.690063 512.877319,630.444031 
	C511.483368,630.595398 510.408997,630.810608 509.334045,630.813599 
	C498.338470,630.844238 487.342102,630.773193 476.347626,630.889771 
	C473.299194,630.922058 471.726837,630.226990 470.748657,626.856079 
	C465.139893,607.527710 459.068695,588.333801 453.420654,569.016418 
	C452.381836,565.463379 450.756958,564.235229 447.188049,564.316833 
	C439.863434,564.484375 432.524628,564.468933 425.204041,564.196655 
	C421.473206,564.057739 420.035278,565.311401 419.480865,569.084167 
	C416.771729,587.519653 413.764313,605.911316 410.853699,624.317139 
	C410.544098,626.275146 410.177734,628.224243 409.789612,630.453674 
	C396.635498,630.453674 383.723846,630.453674 370.119385,630.453674 
	C372.309235,616.468506 374.456879,602.752686 376.696777,588.608398 
M426.694275,525.055908 
	C426.587616,526.267822 426.480988,527.479736 426.357117,528.887024 
	C438.648804,528.887024 450.452484,529.175598 462.232758,528.775513 
	C468.978302,528.546448 475.338745,526.161377 480.446167,521.513611 
	C488.733429,513.972229 491.070221,504.298004 488.535919,493.782990 
	C486.225861,484.198578 478.720795,479.350067 469.503052,478.708771 
	C457.949585,477.904968 446.297791,478.515350 434.079102,478.515350 
	C431.660248,493.773804 429.248291,508.988892 426.694275,525.055908 
z"/>
<path fill="#1D1664" opacity="1.000000" stroke="none" 
	d="
M405.150238,234.920013 
	C412.937744,260.268280 402.607941,287.653625 379.509186,303.299896 
	C375.535217,305.991730 371.333221,308.346954 366.787323,311.132996 
	C374.313080,335.653168 381.890106,360.340302 389.718231,385.845520 
	C381.085510,385.845520 373.184052,385.845520 365.282623,385.845520 
	C362.617126,385.845520 359.951660,385.845520 357.286163,385.845551 
	C348.482635,385.845612 348.516174,385.835632 346.016449,377.444916 
	C340.282166,358.196991 334.511810,338.959839 328.698700,319.526428 
	C318.190430,319.526428 307.762604,319.526428 297.022003,319.526428 
	C293.497070,341.615234 290.000885,363.524017 286.478394,385.597748 
	C273.217102,385.597748 260.293518,385.597748 246.845825,385.597748 
	C248.300125,375.703156 249.616776,366.045654 251.154037,356.423431 
	C255.006668,332.308655 258.989746,308.214752 262.863098,284.103241 
	C266.814941,259.503235 270.719208,234.895523 274.602936,210.284668 
	C276.587250,197.709885 276.546417,197.668198 289.302032,197.715439 
	C310.955505,197.795639 332.639587,197.246414 354.253326,198.227798 
	C375.243988,199.180893 392.490143,207.752441 402.418427,227.543365 
	C403.527618,229.754364 404.183746,232.192627 405.150238,234.920013 
M338.172363,284.040649 
	C341.568268,283.288116 345.070648,282.846619 348.341034,281.727386 
	C360.279907,277.641510 367.393768,265.705811 365.991669,252.531860 
	C364.866852,241.963409 357.401855,234.530945 344.981476,233.599442 
	C333.781433,232.759491 322.468658,233.422256 310.772552,233.422256 
	C308.058655,250.362671 305.377533,267.098419 302.649994,284.123932 
	C304.199158,284.208191 305.007324,284.293976 305.815033,284.289764 
	C316.289551,284.235016 326.764008,284.167480 338.172363,284.040649 
z"/>
<path fill="#4AC454" opacity="1.000000" stroke="none" 
	d="
M195.011871,489.039673 
	C216.442001,454.271088 247.732529,438.149353 287.745392,439.390198 
	C311.743958,440.134399 332.700806,448.435974 347.223724,468.930389 
	C354.813446,479.640869 359.554413,495.510864 358.770142,508.251556 
	C354.413788,508.251556 349.990082,508.253021 345.566406,508.251190 
	C337.400635,508.247864 329.232300,508.124878 321.070374,508.299591 
	C318.063110,508.363922 316.743622,507.439087 315.907013,504.418427 
	C311.643616,489.024963 301.601501,480.662781 285.728424,478.865112 
	C257.307892,475.646393 234.428146,491.042572 226.155930,519.382080 
	C221.420959,535.603577 219.622574,552.060913 225.188110,568.532776 
	C230.394363,583.941406 242.950516,593.496216 259.153564,594.331116 
	C281.246490,595.469543 298.723572,588.243591 308.286346,566.842163 
	C308.801056,565.690308 310.228729,564.153442 311.248932,564.140137 
	C325.027313,563.960571 338.808777,564.019653 353.240570,564.019653 
	C348.533844,578.981750 341.989288,592.118042 332.088806,603.420654 
	C315.618256,622.223694 294.598114,631.635437 269.833008,633.092163 
	C252.647598,634.103088 235.819809,632.734131 220.186829,624.720825 
	C196.056503,612.351746 183.614975,591.706482 180.304581,565.558594 
	C176.911942,538.761108 181.421005,513.126343 195.011871,489.039673 
z"/>
<path fill="#4AC454" opacity="1.000000" stroke="none" 
	d="
M562.215088,502.214722 
	C565.207947,483.551697 568.163391,465.322052 570.949341,447.066559 
	C571.451477,443.776215 572.413574,442.211273 576.211060,442.241272 
	C612.534180,442.527954 648.858948,442.609680 685.183167,442.763763 
	C686.152710,442.767853 687.121643,442.924896 688.758057,443.069580 
	C686.819275,455.414734 684.924011,467.482483 682.956543,480.009918 
	C680.898315,480.009918 679.098022,480.011261 677.297791,480.009674 
	C654.966064,479.990234 632.633911,480.040833 610.303223,479.877991 
	C606.771606,479.852295 605.362305,480.872314 604.876099,484.477203 
	C603.389893,495.497070 601.516357,506.464661 599.662781,518.286255 
	C622.612061,518.286255 644.988464,518.286255 667.979553,518.286255 
	C666.088501,529.916870 664.431213,540.725891 662.414795,551.467407 
	C662.232605,552.438110 659.738953,553.608398 658.312683,553.616455 
	C639.148438,553.724731 619.982971,553.686523 600.818298,553.584656 
	C593.979797,553.548340 594.033508,553.434265 592.926025,560.422668 
	C591.237610,571.077515 589.467224,581.719482 587.561096,593.412476 
	C613.502502,593.412476 638.839417,593.412476 664.893677,593.412476 
	C662.873718,605.920898 661.129761,617.389221 658.986511,628.782471 
	C658.805908,629.742798 655.952576,630.791077 654.334717,630.800964 
	C632.670044,630.934265 611.004395,630.889343 589.338928,630.889771 
	C575.506348,630.890076 561.673828,630.892029 547.841248,630.893250 
	C546.054565,630.893372 544.267883,630.893311 541.850708,630.893311 
	C548.682190,587.666321 555.400940,545.152771 562.215088,502.214722 
z"/>
<path fill="#1D1665" opacity="1.000000" stroke="none" 
	d="
M127.877533,360.037048 
	C126.490807,368.804199 125.169891,377.137512 123.837776,385.541504 
	C110.516312,385.541504 97.581123,385.541504 84.055992,385.541504 
	C94.060081,322.622803 104.011330,260.036438 113.973312,197.382584 
	C129.254028,197.382584 144.225906,197.271454 159.195267,197.418030 
	C171.008530,197.533676 182.927536,197.052658 194.608093,198.444122 
	C220.784256,201.562393 237.769150,218.878143 240.548187,245.758087 
	C243.377945,273.128448 232.150223,300.823334 204.707657,314.765076 
	C193.190689,320.616119 180.854599,322.834900 168.045502,322.851959 
	C156.740265,322.867004 145.434998,322.855103 133.878387,322.855103 
	C131.860916,335.346771 129.902145,347.474976 127.877533,360.037048 
M144.583313,287.172638 
	C149.574005,287.174469 154.584595,287.459534 159.550613,287.110321 
	C166.633240,286.612335 173.894928,286.467560 180.700897,284.706329 
	C193.022232,281.517853 200.732651,268.963928 199.551483,255.811249 
	C198.327805,242.185104 191.290298,234.395294 178.032837,233.464111 
	C168.287064,232.779587 158.454559,233.329849 148.113403,233.329849 
	C145.245087,251.188492 142.397568,268.917603 139.466080,287.169525 
	C141.331268,287.169525 142.469070,287.169525 144.583313,287.172638 
z"/>
<path fill="#4AC454" opacity="1.000000" stroke="none" 
	d="
M584.634766,168.383484 
	C580.922607,163.761429 577.434387,159.417313 573.370850,154.356720 
	C575.693787,154.214996 576.953308,154.071716 578.212830,154.071457 
	C592.872620,154.068420 607.533752,153.994019 622.190613,154.208389 
	C624.195312,154.237717 626.872009,155.167755 628.070862,156.634415 
	C663.472839,199.944870 698.728455,243.375015 733.995117,286.796021 
	C734.709961,287.676178 735.281372,288.672882 736.046936,289.802979 
	C722.352173,306.715759 708.742615,323.522583 695.133911,340.330139 
	C672.083313,368.799103 648.990112,397.233887 626.051697,425.792999 
	C623.827026,428.562836 621.584961,429.669373 618.081970,429.621338 
	C605.090454,429.443176 592.095032,429.559967 579.101074,429.540771 
	C577.491455,429.538391 575.882080,429.384430 573.269348,429.248566 
	C578.873108,422.247345 583.872192,415.920746 588.956055,409.663025 
	C619.714233,371.802399 650.441833,333.916595 681.345581,296.175049 
	C684.211243,292.675293 683.727905,290.684906 681.065063,287.414520 
	C648.898499,247.909714 616.900513,208.267685 584.634766,168.383484 
z"/>
<path fill="#4AC454" opacity="1.000000" stroke="none" 
	d="
M1093.000000,443.046753 
	C1103.116211,443.046783 1112.732422,443.046783 1122.919434,443.046783 
	C1120.904297,455.681366 1118.999756,467.623077 1116.995605,480.188629 
	C1113.005981,480.188629 1109.229492,480.188782 1105.453003,480.188599 
	C1093.620361,480.187958 1081.782471,480.385834 1069.957764,480.078552 
	C1065.829468,479.971344 1064.640259,481.468781 1064.051758,485.266876 
	C1058.779419,519.293457 1053.334351,553.293335 1047.918335,587.297607 
	C1045.618530,601.737000 1043.266846,616.168091 1040.895264,630.872009 
	C1027.717041,630.872009 1014.799988,630.872009 1001.132996,630.872009 
	C1009.096069,580.704956 1017.005371,530.876953 1025.040894,480.253326 
	C1007.407043,480.253326 990.363342,480.253326 972.748962,480.253326 
	C974.376892,469.978394 975.842102,460.485504 977.394775,451.006927 
	C978.706787,442.998138 978.751709,443.007904 987.005920,443.010925 
	C1022.170593,443.023712 1057.335327,443.034943 1093.000000,443.046753 
z"/>
<path fill="#4AC454" opacity="1.000000" stroke="none" 
	d="
M942.299377,515.444702 
	C937.936218,542.808350 933.685425,569.746826 929.432556,596.684998 
	C927.647949,607.989075 925.859192,619.292480 924.039673,630.802368 
	C910.684937,630.802368 897.754822,630.802368 884.211243,630.802368 
	C894.153992,568.215515 904.051453,505.913757 913.994812,443.323059 
	C927.289001,443.323059 940.329773,443.323059 953.889465,443.323059 
	C950.021179,467.484833 946.216064,491.252167 942.299377,515.444702 
z"/>
<path fill="#1E1664" opacity="1.000000" stroke="none" 
	d="
M750.079285,307.929016 
	C771.895752,334.803711 793.501038,361.396210 815.510193,388.485687 
	C813.982910,388.732880 812.958435,389.040802 811.933228,389.043182 
	C798.106934,389.075165 784.279724,389.137024 770.455322,388.973389 
	C768.722046,388.952881 766.410522,388.179810 765.367249,386.924225 
	C749.841187,368.238129 734.483948,349.411804 718.823242,330.296936 
	C727.260559,320.524017 735.604553,310.859283 744.157593,300.952362 
	C746.261108,303.418274 748.064636,305.532501 750.079285,307.929016 
z"/>
<path fill="#1E1765" opacity="1.000000" stroke="none" 
	d="
M722.463867,245.439346 
	C732.683289,233.827347 741.882263,221.759521 754.520935,212.970871 
	C771.924438,200.868881 791.179138,194.539429 812.247925,193.427734 
	C813.179077,193.378601 814.120850,193.530258 816.035645,193.649063 
	C791.867737,222.702682 768.241516,251.105057 744.261719,279.932556 
	C735.620361,269.626617 727.316772,259.723389 718.953918,249.749542 
	C720.159729,248.263306 721.196228,246.985718 722.463867,245.439346 
z"/>
<path fill="#1E1765" opacity="1.000000" stroke="none" 
	d="
M690.167542,170.176651 
	C698.873352,161.608429 708.864563,159.369781 719.742065,163.744598 
	C730.499146,168.071014 736.043335,176.521088 736.096680,188.257278 
	C736.150146,200.028381 729.091125,209.675156 717.804321,213.459305 
	C707.450378,216.930695 695.636047,213.263184 688.735474,204.435501 
	C681.774902,195.530914 681.267822,183.128464 687.506653,173.617142 
	C688.234802,172.507095 689.117188,171.498169 690.167542,170.176651 
z"/>
<path fill="#FDFDFE" opacity="1.000000" stroke="none" 
	d="
M552.464111,321.397522 
	C543.268005,337.236023 530.764160,347.737793 512.253784,349.612823 
	C489.218781,351.946228 471.453796,340.547974 466.668701,317.997131 
	C461.250732,292.463928 466.160675,268.535919 484.310089,248.756149 
	C498.863617,232.895279 522.323364,228.810318 540.520691,238.221954 
	C555.111084,245.768143 560.535828,259.066803 561.843445,274.280060 
	C563.249146,290.634125 560.545654,306.431793 552.464111,321.397522 
z"/>
<path fill="#FDFEFD" opacity="1.000000" stroke="none" 
	d="
M743.479370,562.439453 
	C747.757629,535.936768 751.871460,509.845337 756.154785,483.781799 
	C756.377625,482.425842 758.031311,480.255188 759.043213,480.241302 
	C769.019531,480.104645 779.122253,479.404205 788.955811,480.672516 
	C809.622986,483.338135 823.137573,496.228699 826.560669,516.973572 
	C829.963867,537.597656 826.456665,557.154297 812.828064,573.862610 
	C802.272949,586.803101 787.904358,592.497925 771.720276,593.502014 
	C760.981628,594.168335 750.168213,593.628357 738.607666,593.628357 
	C740.232483,583.084961 741.791199,572.970703 743.479370,562.439453 
z"/>
<path fill="#FBFEFC" opacity="1.000000" stroke="none" 
	d="
M426.765320,524.629944 
	C429.248291,508.988892 431.660248,493.773804 434.079102,478.515350 
	C446.297791,478.515350 457.949585,477.904968 469.503052,478.708771 
	C478.720795,479.350067 486.225861,484.198578 488.535919,493.782990 
	C491.070221,504.298004 488.733429,513.972229 480.446167,521.513611 
	C475.338745,526.161377 468.978302,528.546448 462.232758,528.775513 
	C450.452484,529.175598 438.648804,528.887024 426.357117,528.887024 
	C426.480988,527.479736 426.587616,526.267822 426.765320,524.629944 
z"/>
<path fill="#FCFCFD" opacity="1.000000" stroke="none" 
	d="
M337.705414,284.071899 
	C326.764008,284.167480 316.289551,284.235016 305.815033,284.289764 
	C305.007324,284.293976 304.199158,284.208191 302.649994,284.123932 
	C305.377533,267.098419 308.058655,250.362671 310.772552,233.422256 
	C322.468658,233.422256 333.781433,232.759491 344.981476,233.599442 
	C357.401855,234.530945 364.866852,241.963409 365.991669,252.531860 
	C367.393768,265.705811 360.279907,277.641510 348.341034,281.727386 
	C345.070648,282.846619 341.568268,283.288116 337.705414,284.071899 
z"/>
<path fill="#FCFCFD" opacity="1.000000" stroke="none" 
	d="
M144.095093,287.171082 
	C142.469070,287.169525 141.331268,287.169525 139.466080,287.169525 
	C142.397568,268.917603 145.245087,251.188492 148.113403,233.329849 
	C158.454559,233.329849 168.287064,232.779587 178.032837,233.464111 
	C191.290298,234.395294 198.327805,242.185104 199.551483,255.811249 
	C200.732651,268.963928 193.022232,281.517853 180.700897,284.706329 
	C173.894928,286.467560 166.633240,286.612335 159.550613,287.110321 
	C154.584595,287.459534 149.574005,287.174469 144.095093,287.171082 
z"/>
</svg>